<svg width="17" height="17" viewBox="0 0 17 17" fill="none" xmlns="http://www.w3.org/2000/svg">
<g clip-path="url(#clip0_346_18)">
<path d="M8.5 3.89581C9.15752 3.89581 9.7881 4.15701 10.253 4.62194C10.718 5.08688 10.9792 5.71746 10.9792 6.37498C10.9792 7.0325 10.718 7.66308 10.253 8.12802C9.7881 8.59295 9.15752 8.85415 8.5 8.85415C7.84248 8.85415 7.2119 8.59295 6.74696 8.12802C6.28203 7.66308 6.02083 7.0325 6.02083 6.37498C6.02083 5.71746 6.28203 5.08688 6.74696 4.62194C7.2119 4.15701 7.84248 3.89581 8.5 3.89581ZM3.54167 5.66665C3.93833 5.66665 4.30667 5.7729 4.62542 5.96415C4.51917 6.97706 4.81667 7.9829 5.42583 8.76915C5.07167 9.44915 4.36333 9.91665 3.54167 9.91665C2.97808 9.91665 2.43758 9.69276 2.03906 9.29425C1.64055 8.89573 1.41667 8.35523 1.41667 7.79165C1.41667 7.22806 1.64055 6.68756 2.03906 6.28904C2.43758 5.89053 2.97808 5.66665 3.54167 5.66665ZM13.4583 5.66665C14.0219 5.66665 14.5624 5.89053 14.9609 6.28904C15.3595 6.68756 15.5833 7.22806 15.5833 7.79165C15.5833 8.35523 15.3595 8.89573 14.9609 9.29425C14.5624 9.69276 14.0219 9.91665 13.4583 9.91665C12.6367 9.91665 11.9283 9.44915 11.5742 8.76915C12.1917 7.97186 12.4784 6.96729 12.3746 5.96415C12.6933 5.7729 13.0617 5.66665 13.4583 5.66665ZM3.89583 12.9271C3.89583 11.4608 5.95708 10.2708 8.5 10.2708C11.0429 10.2708 13.1042 11.4608 13.1042 12.9271V14.1666H3.89583V12.9271ZM0 14.1666V13.1041C0 12.1196 1.33875 11.2908 3.15208 11.05C2.73417 11.5316 2.47917 12.1975 2.47917 12.9271V14.1666H0ZM17 14.1666H14.5208V12.9271C14.5208 12.1975 14.2658 11.5316 13.8479 11.05C15.6612 11.2908 17 12.1196 17 13.1041V14.1666Z" fill="#003262"/>
</g>
<defs>
<clipPath id="clip0_346_18">
<rect width="17" height="17" fill="white"/>
</clipPath>
</defs>
</svg>
