<svg width="17" height="17" viewBox="0 0 17 17" fill="none" xmlns="http://www.w3.org/2000/svg">
<path d="M6.37498 2.12498V0.708313H10.625V2.12498H6.37498ZM7.08332 10.4479L6.30415 8.88956C6.24512 8.7597 6.15658 8.66219 6.03852 8.59702C5.92047 8.53185 5.79651 8.49951 5.66665 8.49998H2.1604C2.33748 6.90623 3.02811 5.56323 4.23228 4.47098C5.43644 3.37873 6.85901 2.83284 8.49998 2.83331C9.23193 2.83331 9.93436 2.95137 10.6073 3.18748C11.2802 3.42359 11.9118 3.76595 12.5021 4.21456L13.4937 3.2229L14.4854 4.21456L13.4937 5.20623C13.8715 5.70206 14.1726 6.22458 14.3969 6.77377C14.6212 7.32297 14.7687 7.89837 14.8396 8.49998H11.776L10.5541 6.05623C10.4243 5.7847 10.2118 5.64894 9.91665 5.64894C9.62151 5.64894 9.40901 5.7847 9.27915 6.05623L7.08332 10.4479ZM8.49998 15.5833C6.85901 15.5833 5.43644 15.0372 4.23228 13.9449C3.02811 12.8527 2.33748 11.5099 2.1604 9.91665H5.22394L6.44582 12.3604C6.57568 12.6319 6.78818 12.7677 7.08332 12.7677C7.37846 12.7677 7.59096 12.6319 7.72082 12.3604L9.91665 7.96873L10.6958 9.52706C10.7548 9.65692 10.8434 9.75444 10.9614 9.8196C11.0795 9.88477 11.2035 9.91712 11.3333 9.91665H14.8396C14.6625 11.5104 13.9719 12.8532 12.7677 13.9449C11.5635 15.0367 10.141 15.5828 8.49998 15.5833Z" fill="#003262"/>
</svg>
